<svg width="24" height="24" viewBox="0 0 24 24" fill="none" xmlns="http://www.w3.org/2000/svg">
<g clip-path="url(#clip0_12371_43675)">
<path fill-rule="evenodd" clip-rule="evenodd" d="M11.5 10H13V15H11.5V10ZM9 10H6C5.4 10 5 10.4167 5 10.8333V14.1667C5 14.5833 5.4 15 6 15H9C9.6 15 10 14.5833 10 14.1667V12.5H8.5V13.75H6.5V11.25H10V10.8333C10 10.4167 9.6 10 9 10ZM19 11.25V10H14.5V15H16V13.3333H18V12.0833H16V11.25H19Z" fill="#6B6B80"/>
<rect x="2.75" y="2.75" width="18.5" height="18.5" rx="4.25" stroke="#6B6B80" stroke-width="1.5"/>
</g>
<defs>
<clipPath id="clip0_12371_43675">
<rect width="24" height="24" fill="white"/>
</clipPath>
</defs>
</svg>
