<svg width="20" height="18" viewBox="0 0 20 18" fill="none" xmlns="http://www.w3.org/2000/svg">
<path d="M7.76045 11.3677C7.18545 10.7937 6.83545 10.0137 6.83545 9.13866C6.83545 7.38566 8.24745 5.97266 9.99945 5.97266C10.8664 5.97266 11.6644 6.32366 12.2294 6.89766" stroke="#9C9CAF" stroke-width="1.5" stroke-linecap="round" stroke-linejoin="round"/>
<path d="M13.1049 9.69922C12.8729 10.9892 11.8569 12.0072 10.5679 12.2412" stroke="#9C9CAF" stroke-width="1.5" stroke-linecap="round" stroke-linejoin="round"/>
<path d="M4.65451 14.472C3.06751 13.226 1.72351 11.406 0.749512 9.13698C1.73351 6.85798 3.08651 5.02798 4.68351 3.77198C6.27051 2.51598 8.10151 1.83398 9.99951 1.83398C11.9085 1.83398 13.7385 2.52598 15.3355 3.79098" stroke="#9C9CAF" stroke-width="1.5" stroke-linecap="round" stroke-linejoin="round"/>
<path d="M17.4473 5.99023C18.1353 6.90423 18.7403 7.95923 19.2493 9.13623C17.2823 13.6932 13.8063 16.4382 9.99929 16.4382C9.13629 16.4382 8.28529 16.2982 7.46729 16.0252" stroke="#9C9CAF" stroke-width="1.5" stroke-linecap="round" stroke-linejoin="round"/>
<path d="M17.8868 1.25L2.11279 17.024" stroke="#9C9CAF" stroke-width="1.5" stroke-linecap="round" stroke-linejoin="round"/>
</svg>
