<svg width="24" height="24" viewBox="0 0 24 24" fill="none" xmlns="http://www.w3.org/2000/svg">
<path fill-rule="evenodd" clip-rule="evenodd" d="M16.303 2.74982H7.651C4.639 2.74982 2.75 4.88382 2.75 7.90382V16.0498C2.75 19.0698 4.631 21.2038 7.651 21.2038H16.298C19.323 21.2038 21.203 19.0698 21.203 16.0498V7.90382C21.207 4.88382 19.326 2.74982 16.303 2.74982Z" stroke="#6B6B80" stroke-width="1.5" stroke-linecap="round" stroke-linejoin="round"/>
<path fill-rule="evenodd" clip-rule="evenodd" d="M10.7037 8.78503C10.7037 9.80503 9.87772 10.631 8.85772 10.631C7.83872 10.631 7.01172 9.80503 7.01172 8.78503C7.01172 7.76503 7.83872 6.93903 8.85772 6.93903C9.87672 6.94003 10.7027 7.76603 10.7037 8.78503Z" stroke="#6B6B80" stroke-width="1.5" stroke-linecap="round" stroke-linejoin="round"/>
<path d="M21.207 14.951C20.284 14.001 18.509 12.082 16.579 12.082C14.648 12.082 13.535 16.315 11.678 16.315C9.821 16.315 8.134 14.401 6.646 15.628C5.158 16.854 3.75 19.361 3.75 19.361" stroke="#6B6B80" stroke-width="1.5" stroke-linecap="round" stroke-linejoin="round"/>
</svg>
