<svg width="24" height="24" viewBox="0 0 24 24" fill="none" xmlns="http://www.w3.org/2000/svg">
<path d="M9.76057 14.3668C9.18557 13.7928 8.83557 13.0128 8.83557 12.1378C8.83557 10.3848 10.2476 8.9718 11.9996 8.9718C12.8666 8.9718 13.6646 9.3228 14.2296 9.8968" stroke="#9C9CAF" stroke-width="1.5" stroke-linecap="round" stroke-linejoin="round"/>
<path d="M15.1047 12.699C14.8727 13.989 13.8567 15.007 12.5677 15.241" stroke="#9C9CAF" stroke-width="1.5" stroke-linecap="round" stroke-linejoin="round"/>
<path d="M6.65457 17.4724C5.06757 16.2264 3.72357 14.4064 2.74957 12.1374C3.73357 9.85835 5.08657 8.02835 6.68357 6.77235C8.27057 5.51635 10.1016 4.83435 11.9996 4.83435C13.9086 4.83435 15.7386 5.52635 17.3356 6.79135" stroke="#9C9CAF" stroke-width="1.5" stroke-linecap="round" stroke-linejoin="round"/>
<path d="M19.4476 8.99084C20.1356 9.90484 20.7406 10.9598 21.2496 12.1368C19.2826 16.6938 15.8066 19.4388 11.9996 19.4388C11.1366 19.4388 10.2856 19.2988 9.46759 19.0258" stroke="#9C9CAF" stroke-width="1.5" stroke-linecap="round" stroke-linejoin="round"/>
<path d="M19.887 4.24963L4.11298 20.0236" stroke="#9C9CAF" stroke-width="1.5" stroke-linecap="round" stroke-linejoin="round"/>
</svg>
