<svg width="149" height="40" viewBox="0 0 149 40" fill="none" xmlns="http://www.w3.org/2000/svg">
<path fill-rule="evenodd" clip-rule="evenodd" d="M17.7006 8C20.562 8.00171 22.6385 20.6775 22.1208 26.5249C22.1189 26.5317 21.3313 26.5349 20.2269 26.5361L18.1951 26.5361L17.9981 26.5361L17.6028 26.5357C15.4281 26.5336 13.2849 26.5281 13.2803 26.5249C12.7597 20.6766 14.8392 7.99858 17.7006 8ZM17.7002 14.8292C16.8718 14.8292 16.2002 15.4844 16.2002 16.2926C16.2002 17.1008 16.8718 17.756 17.7002 17.756C18.5286 17.756 19.2002 17.1008 19.2002 16.2926C19.2002 15.4844 18.5286 14.8292 17.7002 14.8292ZM17.7002 27.5122C17.9763 27.5122 18.2002 27.7307 18.2002 28.0001V30.9269C18.2002 31.1963 17.9763 31.4147 17.7002 31.4147C17.424 31.4147 17.2002 31.1963 17.2002 30.9269V28.0001C17.2002 27.7307 17.424 27.5122 17.7002 27.5122ZM15.7002 27.5122C15.9763 27.5122 16.2002 27.7307 16.2002 28.0001V28.9757C16.2002 29.2451 15.9763 29.4635 15.7002 29.4635C15.424 29.4635 15.2002 29.2451 15.2002 28.9757V28.0001C15.2002 27.7307 15.424 27.5122 15.7002 27.5122ZM19.7002 27.5122C19.9763 27.5122 20.2002 27.7307 20.2002 28.0001V28.9757C20.2002 29.2451 19.9763 29.4635 19.7002 29.4635C19.424 29.4635 19.2002 29.2451 19.2002 28.9757V28.0001C19.2002 27.7307 19.424 27.5122 19.7002 27.5122ZM23.2001 19.7075L27.137 24.0283C27.1776 24.073 27.2001 24.1307 27.2001 24.1904V27.2108C27.2001 27.4802 26.9763 27.6986 26.7001 27.6986C26.6225 27.6986 26.5459 27.6809 26.4765 27.6471L23.2001 26.0488V19.7075ZM12.2002 19.7075V26.0488L8.92381 27.6471C8.85438 27.6809 8.77782 27.6986 8.7002 27.6986C8.42406 27.6986 8.2002 27.4802 8.2002 27.2108V24.1904C8.2002 24.1307 8.22266 24.073 8.26334 24.0283L12.2002 19.7075ZM71.5831 26.296V22.6716H72.6347L74.6393 26.296H77.7942L75.428 22.1423C76.0305 21.8109 76.507 21.3618 76.8576 20.7952C77.2081 20.2285 77.3834 19.6137 77.3834 18.9509C77.3834 17.8175 76.9836 16.8927 76.1839 16.1764C75.3952 15.4387 74.4148 15.0698 73.2427 15.0698H68.6419V26.296H71.5831ZM73.3163 20.2334L71.5831 20.2338V17.716H73.2098C73.5713 17.716 73.8671 17.8336 74.0971 18.0688C74.3271 18.304 74.4422 18.6087 74.4422 18.983C74.4422 19.3571 74.3271 19.6619 74.0971 19.897C73.8901 20.1087 73.6298 20.2208 73.3163 20.2334ZM73.2098 20.2338C73.2459 20.2349 73.2814 20.2348 73.3163 20.2334L73.2098 20.2338ZM84.416 26.5365C86.092 26.5365 87.5161 25.9752 88.6882 24.8526C89.8603 23.7086 90.4464 22.3187 90.4464 20.6829C90.4464 19.0364 89.8603 17.6519 88.6882 16.5292C87.5271 15.396 86.103 14.8293 84.416 14.8293C82.7181 14.8293 81.2886 15.396 80.1274 16.5292C78.9663 17.6519 78.3857 19.0364 78.3857 20.6829C78.3857 22.3294 78.9663 23.7193 80.1274 24.8526C81.2886 25.9752 82.7181 26.5365 84.416 26.5365ZM84.416 23.73C83.5397 23.73 82.8003 23.4467 82.1978 22.88C81.6063 22.3027 81.3105 21.5703 81.3105 20.6829C81.3105 19.7848 81.6063 19.0578 82.1978 18.5018C82.7893 17.9244 83.5287 17.6358 84.416 17.6358C85.3033 17.6358 86.0428 17.9244 86.6343 18.5018C87.2258 19.0578 87.5216 19.7848 87.5216 20.6829C87.5216 21.5703 87.2258 22.3027 86.6343 22.88C86.0318 23.4467 85.2924 23.73 84.416 23.73ZM97.364 26.5365C98.4156 26.5365 99.3823 26.2987 100.264 25.8229C101.146 25.3471 101.839 24.6976 102.343 23.8743L99.7959 22.431C99.5768 22.8372 99.2509 23.1554 98.8182 23.3852C98.3855 23.6151 97.9008 23.73 97.364 23.73C96.4438 23.73 95.699 23.452 95.1293 22.896C94.5707 22.34 94.2913 21.6024 94.2913 20.6829C94.2913 19.7848 94.5707 19.0524 95.1293 18.4858C95.7099 17.9192 96.4548 17.6358 97.364 17.6358C97.9008 17.6358 98.3855 17.7508 98.8182 17.9806C99.2509 18.2105 99.5768 18.5232 99.7959 18.9188L102.343 17.4915C101.839 16.6789 101.143 16.032 100.256 15.551C99.3686 15.0698 98.4047 14.8293 97.364 14.8293C95.6223 14.8293 94.1873 15.3906 93.059 16.5132C91.9307 17.6144 91.3665 19.0043 91.3665 20.6829C91.3665 22.3615 91.9307 23.7567 93.059 24.8686C94.1982 25.9805 95.6332 26.5365 97.364 26.5365ZM106.565 26.296V21.2762L109.868 26.296H113.154L109.342 20.5225L112.99 15.0698H109.704L106.565 19.7848V15.0698H103.624V26.296H106.565ZM121.387 26.296V23.6017H116.934V21.9498H120.894V19.3037H116.934V17.748H121.304V15.0698H113.992V26.296H121.387ZM127.828 26.296V17.8442H130.67V15.0698H122.044V17.8442H124.886V26.296H127.828ZM135.83 26.5365C137.144 26.5365 138.201 26.2265 139.001 25.6064C139.801 24.9863 140.201 24.1256 140.201 23.0243C140.201 21.9017 139.801 21.0839 139.001 20.5707C138.618 20.314 138.245 20.1109 137.884 19.9612C137.566 19.8329 137.117 19.6833 136.536 19.5121C135.759 19.2877 135.236 19.0899 134.967 18.9188C134.699 18.7478 134.565 18.5393 134.565 18.2933C134.565 18.0688 134.658 17.8897 134.844 17.756C135.03 17.6225 135.293 17.5557 135.633 17.5557C136.465 17.5557 137.062 17.9726 137.424 18.8065L139.888 17.3953C139.494 16.5719 138.924 15.9385 138.179 15.4948C137.435 15.0511 136.58 14.8293 135.616 14.8293C134.488 14.8293 133.535 15.15 132.757 15.7915C132.001 16.433 131.623 17.2722 131.623 18.3094C131.623 19.2288 131.914 19.9666 132.494 20.5225C133.075 21.0785 133.924 21.5115 135.041 21.8215C135.83 22.0461 136.312 22.1904 136.487 22.2546C137.002 22.4683 137.259 22.7357 137.259 23.0564C137.259 23.559 136.81 23.8102 135.912 23.8102C134.827 23.8102 134.072 23.313 133.644 22.3187L131.13 23.746C131.459 24.6228 132.026 25.307 132.831 25.7988C133.636 26.2906 134.636 26.5365 135.83 26.5365ZM37.1414 26.2959V20.2658L39.9184 24.7562H40.2141L43.0075 20.2498V26.2959H45.9323V15.0697H43.0075L40.0662 19.8649L37.1414 15.0697H34.2002V26.2959H37.1414ZM54.0658 26.2959L57.7793 15.0697H54.5588L52.3077 22.7998L50.073 15.0697H46.8524L50.5659 26.2959H54.0658ZM61.6243 26.2959V22.928H63.1524C64.3136 22.928 65.2885 22.5592 66.0772 21.8214C66.8659 21.0838 67.2603 20.1429 67.2603 18.9989C67.2603 17.8549 66.8659 16.914 66.0772 16.1763C65.2885 15.4386 64.3136 15.0697 63.1524 15.0697H58.6831V20.6828V26.2959H61.6243ZM63.1524 20.2017H61.6243V17.8121H63.1524C63.481 17.8121 63.7576 17.9217 63.9822 18.1408C64.2068 18.36 64.319 18.646 64.319 18.9989C64.319 19.3517 64.2068 19.6403 63.9822 19.8649C63.7576 20.0894 63.481 20.2017 63.1524 20.2017Z" fill="#E74177"/>
</svg>
